<?xml version="1.0" standalone="no"?>
<!DOCTYPE svg PUBLIC "-//W3C//DTD SVG 20010904//EN"
 "http://www.w3.org/TR/2001/REC-SVG-20010904/DTD/svg10.dtd">
<svg version="1.0" xmlns="http://www.w3.org/2000/svg"
 width="899.000000pt" height="239.000000pt" viewBox="0 0 899.000000 239.000000"
 preserveAspectRatio="xMidYMid meet">

<g transform="translate(0.000000,239.000000) scale(0.100000,-0.100000)"
fill="#000000" stroke="none">
<path d="M2763 1788 c-6 -7 -13 -22 -16 -33 -3 -11 -13 -45 -22 -76 l-16 -57
-37 9 c-71 16 -294 22 -387 10 -191 -25 -378 -87 -650 -214 -77 -36 -146 -67
-153 -69 -8 -2 -24 23 -42 67 -15 39 -34 71 -42 73 -24 5 -163 -54 -166 -70
-2 -9 10 -48 27 -89 26 -66 28 -75 14 -86 -31 -24 -311 -142 -408 -172 -268
-82 -527 -82 -737 1 -64 25 -80 28 -93 18 -19 -16 -19 -44 -1 -59 24 -20 170
-69 256 -85 48 -9 136 -16 210 -16 l128 0 11 -47 c30 -119 31 -123 52 -123 33
0 153 32 166 44 10 9 8 25 -7 76 -30 98 -31 95 65 125 111 33 259 98 540 235
349 169 616 283 631 267 2 -2 9 -30 16 -61 9 -49 8 -73 -7 -151 -22 -111 -14
-181 32 -272 31 -62 127 -164 199 -211 56 -38 62 -35 105 50 96 190 73 366
-65 510 -45 47 -56 66 -66 113 -6 31 -9 60 -5 63 4 4 73 7 153 6 161 -1 294
-22 484 -75 184 -51 538 -183 538 -200 0 -5 -14 -40 -30 -76 -17 -37 -28 -73
-26 -80 6 -15 131 -73 158 -73 13 0 29 22 56 79 l37 80 170 -75 c419 -184 806
-319 1058 -369 69 -14 87 -21 82 -33 -3 -8 -10 -35 -17 -59 -14 -57 -6 -65 89
-91 88 -25 94 -21 117 69 l17 65 173 -4 c396 -10 763 74 1134 259 118 59 175
82 181 75 5 -6 20 -34 34 -62 41 -81 44 -82 132 -33 42 23 79 47 81 54 3 6
-13 42 -36 78 -22 37 -40 71 -40 76 0 22 253 149 368 185 119 37 212 50 316
42 106 -8 144 -16 341 -68 240 -64 316 -77 457 -78 l126 0 18 -76 c10 -43 25
-79 34 -84 18 -10 150 19 172 38 14 11 13 20 -3 79 -23 81 -23 93 -5 93 28 0
173 81 234 131 67 54 90 92 71 115 -21 25 -51 15 -108 -39 -124 -115 -306
-177 -515 -177 -141 0 -259 19 -481 79 -127 34 -302 71 -337 71 -7 0 -8 28 -3
75 9 101 6 105 -105 105 l-87 0 -7 -37 c-3 -21 -6 -65 -6 -98 l0 -61 -62 -13
c-122 -25 -283 -100 -534 -247 -238 -139 -264 -154 -359 -196 -90 -40 -330
-128 -351 -128 -6 0 -18 33 -26 74 -14 69 -13 80 5 153 17 67 18 88 9 146 -13
84 -47 156 -107 224 -49 56 -159 143 -180 143 -18 0 -68 -90 -95 -170 -18 -53
-21 -81 -18 -155 5 -110 32 -170 118 -260 51 -53 59 -68 73 -127 17 -77 24
-71 -83 -88 -183 -29 -474 -23 -710 16 -161 27 -536 129 -563 153 -4 4 6 40
23 81 16 40 30 78 30 85 0 16 -164 90 -179 81 -6 -4 -11 -13 -11 -20 0 -8 -14
-45 -31 -84 l-31 -70 -92 38 c-50 21 -212 89 -361 152 -368 156 -554 228 -725
281 -80 25 -145 49 -145 54 0 4 9 41 19 81 11 42 15 77 10 82 -5 5 -38 16 -74
25 -36 9 -72 18 -81 21 -9 2 -21 -1 -26 -8z"/>
</g>
</svg>
